M48
;Layer_Color=9474304
;FILE_FORMAT=2:4
INCH,TZ
;TYPE=PLATED
T1F00S00C0.0197
T2F00S00C0.0236
T3F00S00C0.0315
T4F00S00C0.0354
;TYPE=NON_PLATED
T5F00S00C0.0591
T6F00S00C0.1181
%
T01
X5338Y2706
X4390Y5217
X5827Y4449
X5748Y2717
X5669Y6929
X4787Y6717
X4760Y6217
X4795Y5717
X2402Y7177
X2244Y7717
T02
X2717Y394
X3189
X5000Y1614
X5472
X5000Y3150
X4646Y3740
X5394Y5413
X7717Y5000
X8504
X9291
X10079
Y4213
X9291
X9685Y3819
Y4606
X8898
Y3819
X8504Y4213
X8110Y3819
X7717Y4213
X8110Y4606
Y5394
X8898
X9685
X11299Y5433
X11732
X11614Y2913
Y1299
Y827
Y354
X12126
Y827
Y1299
X12638
Y827
Y354
X13150
Y827
Y1299
X13189Y1850
X13150Y2402
X13583Y2244
X13543Y2795
X15354Y2756
X7087Y1654
X6575
X6063
Y1024
X6575
X7087
Y394
X6575
X6063
X6181Y5866
X6614Y5866
Y6575
X6181
X6299Y6969
X6732
X7717Y7362
Y8150
X8110Y7756
X8504Y8150
Y7362
X9291
Y8150
X9685Y7756
X10079Y8150
Y7362
Y6575
X9291
Y5787
X9685Y6181
X10079Y5787
X11417Y5827
X11850
X11614Y6575
X11181
X11063Y6969
X11496
X9685
X8898
X8504Y6575
Y5787
X8110Y6181
X7717Y5787
Y6575
X8110Y6969
Y8543
X8898
X9685
X8898Y7756
Y6181
X8346Y10157
Y10669
Y11181
X7717
Y10669
Y10157
X7087
X7087Y10669
X7087Y11181
X6024Y11417
X5630Y8701
X9449Y10157
Y10669
Y11181
X10079
Y10669
Y10157
X10709
X10709Y10669
X10709Y11181
X11811Y11417
X12992
X13386Y9449
X12205
Y8268
X15354Y9055
Y5906
X14173
X5591Y6496
X4764Y8110
T03
X535Y4673
X1535Y5173
Y4173
Y6173
Y7173
X535Y7673
Y6673
Y5673
X3303Y10299
X4303
X4803Y11299
X3803
T04
X13327Y4409
X14705
Y7835
X13327
T05
X827Y3622
X5354Y10591
T06
X1181Y1181
X14567
Y10630
X1181
M30
