G04 Layer_Physical_Order=2*
G04 Layer_Color=16711680*
%FSLAX24Y24*%
%MOIN*%
G70*
G01*
G75*
%ADD24C,0.0236*%
%ADD25C,0.0157*%
%ADD28C,0.0512*%
%ADD29C,0.0787*%
G04:AMPARAMS|DCode=30|XSize=78.7mil|YSize=78.7mil|CornerRadius=9.8mil|HoleSize=0mil|Usage=FLASHONLY|Rotation=0.000|XOffset=0mil|YOffset=0mil|HoleType=Round|Shape=RoundedRectangle|*
%AMROUNDEDRECTD30*
21,1,0.0787,0.0591,0,0,0.0*
21,1,0.0591,0.0787,0,0,0.0*
1,1,0.0197,0.0295,-0.0295*
1,1,0.0197,-0.0295,-0.0295*
1,1,0.0197,-0.0295,0.0295*
1,1,0.0197,0.0295,0.0295*
%
%ADD30ROUNDEDRECTD30*%
%ADD31C,0.1181*%
%ADD32C,0.0315*%
%ADD33C,0.0394*%
G36*
X13386Y10630D02*
X13388Y10553D01*
X13409Y10400D01*
X13449Y10250D01*
X13508Y10108D01*
X13585Y9974D01*
X13679Y9851D01*
X13788Y9742D01*
X13911Y9648D01*
X14045Y9571D01*
X14187Y9512D01*
X14337Y9472D01*
X14490Y9451D01*
X14567Y9449D01*
X15648Y9449D01*
Y2362D01*
X14567Y2362D01*
X14567Y2362D01*
X14490Y2360D01*
X14336Y2339D01*
X14187Y2299D01*
X14045Y2240D01*
X13911Y2163D01*
X13788Y2069D01*
X13679Y1960D01*
X13585Y1837D01*
X13508Y1703D01*
X13448Y1561D01*
X13409Y1412D01*
X13388Y1258D01*
X13386Y1181D01*
Y100D01*
X11340D01*
Y1552D01*
X12797Y3935D01*
X13022D01*
X13031Y3934D01*
X13622D01*
X13632Y3935D01*
X13740D01*
X13771Y3942D01*
X13797Y3959D01*
X13814Y3985D01*
X13820Y4016D01*
Y8228D01*
X13814Y8259D01*
X13797Y8285D01*
X13771Y8303D01*
X13740Y8309D01*
X13632D01*
X13622Y8311D01*
X13031D01*
X13022Y8309D01*
X12953D01*
X12953Y8309D01*
X12922Y8303D01*
X12896Y8285D01*
X12896Y8285D01*
X12542Y7931D01*
X12524Y7905D01*
X12518Y7874D01*
X12518Y6490D01*
X12132Y6104D01*
X11857D01*
X11850Y6105D01*
X11844Y6104D01*
X11424D01*
X11417Y6105D01*
X11411Y6104D01*
X11339D01*
X11339Y6104D01*
X11308Y6098D01*
X11282Y6080D01*
X11238Y6036D01*
X11221Y6023D01*
X11208Y6006D01*
X11046Y5844D01*
X11028Y5818D01*
X11022Y5787D01*
Y5439D01*
X11021Y5433D01*
X11022Y5427D01*
X11022Y4383D01*
X9290Y2049D01*
X7435Y2049D01*
X7167Y2317D01*
Y5748D01*
X7167Y5748D01*
X7161Y5779D01*
X7143Y5805D01*
X7143Y5805D01*
X6828Y6120D01*
X6828Y6120D01*
X6802Y6137D01*
X6772Y6143D01*
X6621D01*
X6614Y6144D01*
X6608Y6143D01*
X6187Y6143D01*
X6181Y6144D01*
X6175Y6143D01*
X6063D01*
X6063Y6143D01*
X6032Y6137D01*
X6006Y6120D01*
X6006Y6120D01*
X5888Y6002D01*
X5871Y5976D01*
X5865Y5945D01*
Y4721D01*
X5848Y4707D01*
X5786Y4695D01*
X5201Y5280D01*
Y5512D01*
X5185Y5589D01*
X5142Y5654D01*
X5025Y5770D01*
X5018Y5809D01*
X4966Y5887D01*
X4899Y5931D01*
X4889Y5984D01*
X4889Y6019D01*
X4930Y6046D01*
X4982Y6124D01*
X5001Y6217D01*
X4982Y6309D01*
X4930Y6387D01*
X4888Y6415D01*
X4885Y6444D01*
X4895Y6505D01*
X4912Y6516D01*
X5063D01*
X5140Y6531D01*
X5205Y6575D01*
X5359Y6728D01*
X5544D01*
X5577Y6707D01*
X5669Y6688D01*
X5761Y6707D01*
X5786Y6723D01*
X5865Y6681D01*
Y6496D01*
X5865Y6496D01*
X5871Y6465D01*
X5888Y6439D01*
X5888Y6439D01*
X6006Y6321D01*
X6032Y6304D01*
X6063Y6298D01*
X6175D01*
X6181Y6297D01*
X6187Y6298D01*
X6608Y6298D01*
X6614Y6297D01*
X6621Y6298D01*
X6772D01*
X6772Y6298D01*
X6802Y6304D01*
X6828Y6321D01*
X6828Y6321D01*
X7143Y6636D01*
X7161Y6662D01*
X7167Y6693D01*
Y9416D01*
X7514Y9762D01*
X8661D01*
X8692Y9768D01*
X8718Y9786D01*
X8736Y9812D01*
X8742Y9843D01*
X8742Y11496D01*
X8736Y11527D01*
X8718Y11553D01*
X8692Y11570D01*
X8661Y11576D01*
X6772Y11576D01*
X6772Y11576D01*
X6741Y11570D01*
X6715Y11553D01*
X6715Y11553D01*
X5888Y10726D01*
X5871Y10700D01*
X5865Y10669D01*
X5865Y7177D01*
X5786Y7135D01*
X5761Y7152D01*
X5669Y7170D01*
X5577Y7152D01*
X5544Y7130D01*
X5276D01*
X5199Y7115D01*
X5134Y7071D01*
X4980Y6917D01*
X4912D01*
X4880Y6939D01*
X4787Y6957D01*
X4695Y6939D01*
X4617Y6887D01*
X4565Y6809D01*
X4547Y6717D01*
X4565Y6624D01*
X4617Y6546D01*
X4660Y6518D01*
X4663Y6489D01*
X4652Y6428D01*
X4590Y6387D01*
X4537Y6309D01*
X4519Y6217D01*
X4521Y6205D01*
X4367Y6051D01*
X4332Y5998D01*
X4320Y5937D01*
X4320Y5937D01*
Y5586D01*
X4320Y5586D01*
X4332Y5525D01*
X4298Y5439D01*
X4219Y5387D01*
X4167Y5309D01*
X4149Y5217D01*
X4167Y5124D01*
X4219Y5046D01*
X4234Y5037D01*
X4241Y4998D01*
X4276Y4946D01*
X5312Y3910D01*
Y2949D01*
X5306Y2940D01*
X5246Y2928D01*
X5168Y2876D01*
X5115Y2798D01*
X5097Y2706D01*
X5115Y2614D01*
X5168Y2535D01*
X5246Y2483D01*
X5338Y2465D01*
X5430Y2483D01*
X5496Y2527D01*
X5528Y2535D01*
X5600Y2531D01*
X5656Y2494D01*
X5748Y2476D01*
X5786Y2483D01*
X5865Y2423D01*
Y2199D01*
X5691Y2025D01*
X5674Y1999D01*
X5668Y1969D01*
Y1632D01*
X5669Y1627D01*
X5668Y1622D01*
X5669Y1614D01*
X5668Y1607D01*
X5669Y1601D01*
X5668Y1596D01*
Y100D01*
X2520D01*
Y2362D01*
X3268D01*
X3937Y3031D01*
Y7480D01*
X5709Y9252D01*
Y10465D01*
X5716Y10483D01*
X5718Y10493D01*
X5722Y10503D01*
X5732Y10580D01*
X5731Y10591D01*
X5732Y10601D01*
X5722Y10678D01*
X5718Y10688D01*
X5716Y10698D01*
X5709Y10717D01*
Y11711D01*
X13386D01*
Y10630D01*
D02*
G37*
G36*
X8661Y11496D02*
X8661Y9843D01*
X7480D01*
X7087Y9449D01*
Y6693D01*
X6772Y6378D01*
X6063Y6378D01*
X5945Y6496D01*
X5945Y10669D01*
X6772Y11496D01*
X8661Y11496D01*
D02*
G37*
G36*
X13740Y4016D02*
X12752D01*
X11260Y1575D01*
Y100D01*
X5748D01*
Y1596D01*
X5750Y1614D01*
X5748Y1632D01*
Y1969D01*
X5945Y2165D01*
Y2586D01*
X5971Y2624D01*
X5989Y2717D01*
X5971Y2809D01*
X5945Y2847D01*
X5945Y4244D01*
X5997Y4279D01*
X6049Y4357D01*
X6068Y4449D01*
X6049Y4541D01*
X5997Y4619D01*
X5945Y4654D01*
Y5945D01*
X6063Y6063D01*
X6772Y6063D01*
X7087Y5748D01*
Y2283D01*
X7402Y1969D01*
X9331Y1969D01*
X11102Y4356D01*
X11102Y5787D01*
X11339Y6024D01*
X12165D01*
X12598Y6457D01*
X12598Y7874D01*
X12953Y8228D01*
X13740Y8228D01*
Y4016D01*
D02*
G37*
%LPC*%
G36*
X9134Y11576D02*
X9103Y11570D01*
X9077Y11553D01*
X9060Y11527D01*
X9054Y11496D01*
X9054Y9843D01*
X9060Y9812D01*
X9077Y9786D01*
X9103Y9768D01*
X9134Y9762D01*
X10282D01*
X10628Y9416D01*
Y6732D01*
X10628Y6732D01*
X10634Y6702D01*
X10652Y6676D01*
X11006Y6321D01*
X11032Y6304D01*
X11063Y6298D01*
X11175D01*
X11181Y6297D01*
X11187Y6298D01*
X11608D01*
X11614Y6297D01*
X11621Y6298D01*
X11693D01*
X11724Y6304D01*
X11750Y6321D01*
X11794Y6365D01*
X11811Y6378D01*
X11824Y6395D01*
X11907Y6479D01*
X11907Y6479D01*
X11925Y6505D01*
X11931Y6535D01*
Y10669D01*
X11931Y10669D01*
X11925Y10700D01*
X11907Y10726D01*
X11080Y11553D01*
X11054Y11570D01*
X11024Y11576D01*
X9134Y11576D01*
D02*
G37*
%LPD*%
G36*
X11024Y11496D02*
X11850Y10669D01*
Y6535D01*
X11693Y6378D01*
X11063D01*
X10709Y6732D01*
Y9449D01*
X10315Y9843D01*
X9134D01*
X9134Y11496D01*
X11024Y11496D01*
D02*
G37*
D24*
X4795Y5717D02*
X5000Y5512D01*
Y5197D02*
Y5512D01*
Y5197D02*
X5748Y4449D01*
X5276Y6929D02*
X5571D01*
X5063Y6717D02*
X5276Y6929D01*
X4787Y6717D02*
X5063D01*
X1988Y7461D02*
X2244Y7717D01*
X1988Y6986D02*
Y7461D01*
X1723Y6720D02*
X1988Y6986D01*
X1442Y6720D02*
X1723D01*
X1024Y6302D02*
X1442Y6720D01*
X1024Y5161D02*
Y6302D01*
X535Y4673D02*
X1024Y5161D01*
X2402Y6772D02*
Y7177D01*
X2008Y6378D02*
X2402Y6772D01*
X2008Y4646D02*
Y6378D01*
X1535Y4173D02*
X2008Y4646D01*
D25*
X5692Y2772D02*
X5709Y2789D01*
X4705Y5098D02*
X5709Y4094D01*
Y2789D02*
Y4094D01*
X5692Y2772D02*
Y2772D01*
Y2772D02*
X5748Y2717D01*
X5472Y2886D02*
Y3976D01*
X5433Y2847D02*
X5472Y2886D01*
X5433Y2795D02*
Y2847D01*
X5344Y2706D02*
X5433Y2795D01*
X5338Y2706D02*
X5344D01*
X4390Y5059D02*
X5472Y3976D01*
X4390Y5059D02*
Y5217D01*
X4480Y5586D02*
X4705Y5362D01*
Y5098D02*
Y5362D01*
X4480Y5937D02*
X4760Y6217D01*
X4480Y5586D02*
Y5937D01*
D28*
X535Y7673D02*
D03*
X1535Y7173D02*
D03*
X535Y6673D02*
D03*
X1535Y6173D02*
D03*
X535Y5673D02*
D03*
X1535Y5173D02*
D03*
X535Y4673D02*
D03*
X1535Y4173D02*
D03*
X4803Y11299D02*
D03*
X4303Y10299D02*
D03*
X3803Y11299D02*
D03*
X3303Y10299D02*
D03*
D29*
X14705Y4409D02*
D03*
Y7835D02*
D03*
D30*
X13327Y4409D02*
D03*
Y7835D02*
D03*
D31*
X1181Y1181D02*
D03*
X14567D02*
D03*
Y10630D02*
D03*
X1181D02*
D03*
D32*
X5748Y2717D02*
D03*
X5338Y2706D02*
D03*
X4390Y5217D02*
D03*
X4795Y5717D02*
D03*
X5827Y4449D02*
D03*
X5669Y6929D02*
D03*
X4760Y6217D02*
D03*
X2244Y7717D02*
D03*
X2402Y7177D02*
D03*
X4787Y6717D02*
D03*
D33*
X7717Y10669D02*
D03*
X8346D02*
D03*
Y11181D02*
D03*
Y10157D02*
D03*
X7087Y11181D02*
D03*
Y10157D02*
D03*
X7087Y10669D02*
D03*
X7717Y10157D02*
D03*
Y11181D02*
D03*
X10079Y10669D02*
D03*
X10709Y11181D02*
D03*
X10079D02*
D03*
X9449Y10157D02*
D03*
Y10669D02*
D03*
Y11181D02*
D03*
X10079Y10157D02*
D03*
X10709Y10669D02*
D03*
X13150Y2402D02*
D03*
X13583Y2244D02*
D03*
X13189Y1850D02*
D03*
X6575Y394D02*
D03*
X7087D02*
D03*
X6063Y1024D02*
D03*
X7087D02*
D03*
X6575D02*
D03*
X14173Y5906D02*
D03*
X12205Y8268D02*
D03*
Y9449D02*
D03*
X13386D02*
D03*
X15354Y9055D02*
D03*
Y5906D02*
D03*
X13543Y2795D02*
D03*
X15354Y2756D02*
D03*
X6614Y5866D02*
D03*
X6299Y6969D02*
D03*
X6614Y6575D02*
D03*
X6732Y6969D02*
D03*
X6181Y5866D02*
D03*
X11614Y2913D02*
D03*
X5591Y6496D02*
D03*
X5394Y5413D02*
D03*
X5630Y8701D02*
D03*
X4764Y8110D02*
D03*
X5000Y3150D02*
D03*
X4646Y3740D02*
D03*
X10079Y8150D02*
D03*
X9291D02*
D03*
X8504D02*
D03*
X7717D02*
D03*
X10079Y7362D02*
D03*
X9291D02*
D03*
X8504D02*
D03*
X7717D02*
D03*
X10079Y6575D02*
D03*
X9291D02*
D03*
X8504D02*
D03*
X7717D02*
D03*
X10079Y5787D02*
D03*
X9291D02*
D03*
X8504D02*
D03*
X7717D02*
D03*
X10079Y5000D02*
D03*
X9291D02*
D03*
X8504D02*
D03*
X7717D02*
D03*
Y4213D02*
D03*
X10079D02*
D03*
X9291D02*
D03*
X8504D02*
D03*
X9685Y5394D02*
D03*
Y4606D02*
D03*
Y3819D02*
D03*
X8110D02*
D03*
Y4606D02*
D03*
Y5394D02*
D03*
X9685Y8543D02*
D03*
Y7756D02*
D03*
Y6969D02*
D03*
X8110Y8543D02*
D03*
Y7756D02*
D03*
Y6969D02*
D03*
X9685Y6181D02*
D03*
X8110D02*
D03*
X8898Y8543D02*
D03*
Y7756D02*
D03*
Y6969D02*
D03*
Y3819D02*
D03*
Y4606D02*
D03*
Y5394D02*
D03*
X2717Y394D02*
D03*
X3189D02*
D03*
X5000Y1614D02*
D03*
X5472D02*
D03*
X6063Y394D02*
D03*
X6181Y6575D02*
D03*
X10709Y10157D02*
D03*
X11496Y6969D02*
D03*
X11614Y6575D02*
D03*
X11181D02*
D03*
X11063Y6969D02*
D03*
X6063Y1654D02*
D03*
X6575D02*
D03*
X7087D02*
D03*
X11850Y5827D02*
D03*
X11417D02*
D03*
X11299Y5433D02*
D03*
X11732D02*
D03*
X11614Y1299D02*
D03*
X12126D02*
D03*
X12638D02*
D03*
X13150D02*
D03*
X11614Y827D02*
D03*
X12126D02*
D03*
X12638D02*
D03*
X13150D02*
D03*
X11614Y354D02*
D03*
X12126D02*
D03*
X12638D02*
D03*
X13150D02*
D03*
X8898Y6181D02*
D03*
X6024Y11417D02*
D03*
X11811D02*
D03*
X12992D02*
D03*
M02*
