G04*
G04 #@! TF.GenerationSoftware,Altium Limited,Altium Designer,18.1.7 (191)*
G04*
G04 Layer_Color=16711935*
%FSLAX24Y24*%
%MOIN*%
G70*
G01*
G75*
%ADD29C,0.0080*%
%ADD30C,0.0592*%
%ADD31C,0.1261*%
G04:AMPARAMS|DCode=32|XSize=86.7mil|YSize=86.7mil|CornerRadius=13.8mil|HoleSize=0mil|Usage=FLASHONLY|Rotation=0.000|XOffset=0mil|YOffset=0mil|HoleType=Round|Shape=RoundedRectangle|*
%AMROUNDEDRECTD32*
21,1,0.0867,0.0591,0,0,0.0*
21,1,0.0591,0.0867,0,0,0.0*
1,1,0.0277,0.0295,-0.0295*
1,1,0.0277,-0.0295,-0.0295*
1,1,0.0277,-0.0295,0.0295*
1,1,0.0277,0.0295,0.0295*
%
%ADD32ROUNDEDRECTD32*%
%ADD33C,0.0867*%
G36*
X7362Y8740D02*
Y3622D01*
X10433D01*
Y8740D01*
X7362D01*
D02*
G37*
D29*
X5354Y10591D02*
D03*
X827Y3622D02*
D03*
D30*
X3303Y10299D02*
D03*
X3803Y11299D02*
D03*
X4303Y10299D02*
D03*
X4803Y11299D02*
D03*
X1535Y4173D02*
D03*
X535Y4673D02*
D03*
X1535Y5173D02*
D03*
X535Y5673D02*
D03*
X1535Y6173D02*
D03*
X535Y6673D02*
D03*
X1535Y7173D02*
D03*
X535Y7673D02*
D03*
D31*
X1181Y10630D02*
D03*
X14567D02*
D03*
Y1181D02*
D03*
X1181D02*
D03*
D32*
X13327Y7835D02*
D03*
Y4409D02*
D03*
D33*
X14705Y7835D02*
D03*
Y4409D02*
D03*
M02*
