G04 Layer_Color=65535*
%FSLAX24Y24*%
%MOIN*%
G70*
G01*
G75*
%ADD34C,0.0118*%
%ADD35C,0.0197*%
%ADD36C,0.0079*%
%ADD37C,0.0030*%
%ADD38C,0.0050*%
D34*
X6853Y2084D02*
G03*
X6853Y2641I-278J278D01*
G01*
X6296D02*
G03*
X6296Y2084I278J-278D01*
G01*
X8822D02*
G03*
X8822Y2641I-278J278D01*
G01*
X8265D02*
G03*
X8265Y2084I278J-278D01*
G01*
X8346Y2362D02*
X8740D01*
X6378D02*
X6772D01*
X6575Y2165D02*
Y2559D01*
D35*
X11623Y3346D02*
G03*
X11623Y3346I-88J0D01*
G01*
D36*
X3379Y7967D02*
G03*
X3629Y7967I125J0D01*
G01*
X3553Y1133D02*
G03*
X3553Y1320I0J93D01*
G01*
X3075Y7967D02*
X3379D01*
X3629D02*
X3933D01*
Y3967D02*
Y7967D01*
X3075Y3967D02*
X3933D01*
X3075D02*
Y7967D01*
X3553Y1133D02*
Y1234D01*
Y1218D02*
Y1320D01*
X3583Y8583D02*
Y8255D01*
X3648Y8189D01*
X3779D01*
X3845Y8255D01*
Y8583D01*
X3976Y8517D02*
X4042Y8583D01*
X4173D01*
X4239Y8517D01*
Y8451D01*
X4173Y8386D01*
X4107D01*
X4173D01*
X4239Y8320D01*
Y8255D01*
X4173Y8189D01*
X4042D01*
X3976Y8255D01*
X11457Y9291D02*
Y8963D01*
X11522Y8898D01*
X11653D01*
X11719Y8963D01*
Y9291D01*
X12113Y8898D02*
X11850D01*
X12113Y9160D01*
Y9226D01*
X12047Y9291D01*
X11916D01*
X11850Y9226D01*
X3898Y472D02*
Y144D01*
X3963Y79D01*
X4094D01*
X4160Y144D01*
Y472D01*
X4291Y79D02*
X4422D01*
X4357D01*
Y472D01*
X4291Y407D01*
X5906Y4685D02*
X5512D01*
Y4882D01*
X5578Y4947D01*
X5709D01*
X5774Y4882D01*
Y4685D01*
Y4816D02*
X5906Y4947D01*
X5512Y5341D02*
Y5079D01*
X5709D01*
X5643Y5210D01*
Y5275D01*
X5709Y5341D01*
X5840D01*
X5906Y5275D01*
Y5144D01*
X5840Y5079D01*
X10669Y2756D02*
Y3149D01*
X10866D01*
X10932Y3084D01*
Y2953D01*
X10866Y2887D01*
X10669D01*
X10800D02*
X10932Y2756D01*
X11063Y3084D02*
X11128Y3149D01*
X11260D01*
X11325Y3084D01*
Y3018D01*
X11260Y2953D01*
X11194D01*
X11260D01*
X11325Y2887D01*
Y2822D01*
X11260Y2756D01*
X11128D01*
X11063Y2822D01*
X4094Y2717D02*
Y3110D01*
X4291D01*
X4357Y3045D01*
Y2913D01*
X4291Y2848D01*
X4094D01*
X4226D02*
X4357Y2717D01*
X4750D02*
X4488D01*
X4750Y2979D01*
Y3045D01*
X4685Y3110D01*
X4554D01*
X4488Y3045D01*
X12008Y2795D02*
Y3189D01*
X12205D01*
X12270Y3123D01*
Y2992D01*
X12205Y2926D01*
X12008D01*
X12139D02*
X12270Y2795D01*
X12401D02*
X12533D01*
X12467D01*
Y3189D01*
X12401Y3123D01*
X10026Y2113D02*
Y2375D01*
X9961Y2441D01*
X9829D01*
X9764Y2375D01*
Y2113D01*
X9829Y2047D01*
X9961D01*
X9895Y2178D02*
X10026Y2047D01*
X9961D02*
X10026Y2113D01*
X10157Y2047D02*
X10289D01*
X10223D01*
Y2441D01*
X10157Y2375D01*
X6654Y10827D02*
Y10433D01*
X6522Y10564D01*
X6391Y10433D01*
Y10827D01*
X5998D02*
X6260D01*
X5998Y10564D01*
Y10499D01*
X6063Y10433D01*
X6194D01*
X6260Y10499D01*
X11693Y10827D02*
Y10433D01*
X11562Y10564D01*
X11431Y10433D01*
Y10827D01*
X11299D02*
X11168D01*
X11234D01*
Y10433D01*
X11299Y10499D01*
X2402Y3110D02*
Y2717D01*
X2664D01*
X3058Y3110D02*
X2795D01*
Y2717D01*
X3058D01*
X2795Y2913D02*
X2926D01*
X3189Y3110D02*
Y2717D01*
X3386D01*
X3451Y2782D01*
Y3045D01*
X3386Y3110D01*
X3189D01*
X3582Y2717D02*
X3713D01*
X3648D01*
Y3110D01*
X3582Y3045D01*
X13346Y590D02*
Y197D01*
X13543D01*
X13609Y262D01*
Y525D01*
X13543Y590D01*
X13346D01*
X13740Y197D02*
X13871D01*
X13806D01*
Y590D01*
X13740Y525D01*
X5577Y3241D02*
X5512Y3307D01*
X5381D01*
X5315Y3241D01*
Y2979D01*
X5381Y2913D01*
X5512D01*
X5577Y2979D01*
X5709Y3241D02*
X5774Y3307D01*
X5905D01*
X5971Y3241D01*
Y3176D01*
X5905Y3110D01*
X5971Y3045D01*
Y2979D01*
X5905Y2913D01*
X5774D01*
X5709Y2979D01*
Y3045D01*
X5774Y3110D01*
X5709Y3176D01*
Y3241D01*
X5774Y3110D02*
X5905D01*
X3766Y3714D02*
X3701Y3779D01*
X3570D01*
X3504Y3714D01*
Y3451D01*
X3570Y3386D01*
X3701D01*
X3766Y3451D01*
X3898Y3779D02*
X4160D01*
Y3714D01*
X3898Y3451D01*
Y3386D01*
X4987Y8753D02*
X4921Y8819D01*
X4790D01*
X4724Y8753D01*
Y8491D01*
X4790Y8425D01*
X4921D01*
X4987Y8491D01*
X5380Y8819D02*
X5249Y8753D01*
X5118Y8622D01*
Y8491D01*
X5184Y8425D01*
X5315D01*
X5380Y8491D01*
Y8556D01*
X5315Y8622D01*
X5118D01*
X2703Y9147D02*
X2638Y9212D01*
X2507D01*
X2441Y9147D01*
Y8884D01*
X2507Y8819D01*
X2638D01*
X2703Y8884D01*
X3097Y9212D02*
X2835D01*
Y9016D01*
X2966Y9081D01*
X3031D01*
X3097Y9016D01*
Y8884D01*
X3031Y8819D01*
X2900D01*
X2835Y8884D01*
X5578Y5853D02*
X5512Y5787D01*
Y5656D01*
X5578Y5591D01*
X5840D01*
X5906Y5656D01*
Y5787D01*
X5840Y5853D01*
Y5984D02*
X5906Y6050D01*
Y6181D01*
X5840Y6247D01*
X5578D01*
X5512Y6181D01*
Y6050D01*
X5578Y5984D01*
X5643D01*
X5709Y6050D01*
Y6247D01*
X5341Y2336D02*
X5276Y2401D01*
X5144D01*
X5079Y2336D01*
Y2073D01*
X5144Y2008D01*
X5276D01*
X5341Y2073D01*
X5472Y2336D02*
X5538Y2401D01*
X5669D01*
X5735Y2336D01*
Y2270D01*
X5669Y2205D01*
X5604D01*
X5669D01*
X5735Y2139D01*
Y2073D01*
X5669Y2008D01*
X5538D01*
X5472Y2073D01*
X12388Y5958D02*
X12323Y6023D01*
X12192D01*
X12126Y5958D01*
Y5696D01*
X12192Y5630D01*
X12323D01*
X12388Y5696D01*
X12782Y5630D02*
X12520D01*
X12782Y5892D01*
Y5958D01*
X12716Y6023D01*
X12585D01*
X12520Y5958D01*
X12428Y6588D02*
X12362Y6653D01*
X12231D01*
X12165Y6588D01*
Y6325D01*
X12231Y6260D01*
X12362D01*
X12428Y6325D01*
X12559Y6260D02*
X12690D01*
X12625D01*
Y6653D01*
X12559Y6588D01*
X2034Y525D02*
X1968Y590D01*
X1837D01*
X1772Y525D01*
Y262D01*
X1837Y197D01*
X1968D01*
X2034Y262D01*
X2362Y197D02*
Y590D01*
X2165Y394D01*
X2428D01*
X5053Y9213D02*
X5315D01*
Y9606D01*
X5053D01*
X5315Y9410D02*
X5184D01*
X4921Y9606D02*
Y9213D01*
X4659Y9606D01*
Y9213D01*
X4265Y9278D02*
X4331Y9213D01*
X4462D01*
X4528Y9278D01*
Y9541D01*
X4462Y9606D01*
X4331D01*
X4265Y9541D01*
X157Y3071D02*
Y2677D01*
X420D01*
X748Y3071D02*
X617D01*
X551Y3005D01*
Y2743D01*
X617Y2677D01*
X748D01*
X813Y2743D01*
Y3005D01*
X748Y3071D01*
X1207Y3005D02*
X1141Y3071D01*
X1010D01*
X945Y3005D01*
Y2743D01*
X1010Y2677D01*
X1141D01*
X1207Y2743D01*
Y2874D01*
X1076D01*
X1338Y3071D02*
X1469D01*
X1404D01*
Y2677D01*
X1338D01*
X1469D01*
X1929Y3005D02*
X1863Y3071D01*
X1732D01*
X1666Y3005D01*
Y2743D01*
X1732Y2677D01*
X1863D01*
X1929Y2743D01*
D37*
X15689Y4409D02*
G03*
X15689Y4409I-1673J0D01*
G01*
Y7835D02*
G03*
X15689Y7835I-1673J0D01*
G01*
D38*
X5049Y7568D02*
X5424D01*
X5049Y7708D02*
X5424D01*
X2826Y8198D02*
Y8573D01*
X2686Y8198D02*
Y8573D01*
X2725Y3395D02*
Y3770D01*
X2865Y3395D02*
Y3770D01*
X5049Y6347D02*
X5424D01*
X5049Y6487D02*
X5424D01*
X5076Y5137D02*
Y5257D01*
X5396Y5137D02*
Y5257D01*
X5049Y3906D02*
X5424D01*
X5049Y4046D02*
X5424D01*
X4349Y2443D02*
X4469D01*
X4349Y2123D02*
X4469D01*
X3809Y2146D02*
Y2421D01*
X2539Y2549D02*
X2972D01*
X2539Y2018D02*
X2972D01*
X2539D02*
Y2549D01*
X3327D02*
X3681D01*
X3327Y2018D02*
X3681D01*
X3760Y2096D01*
X3750Y2087D02*
X3809Y2146D01*
X3740Y2490D02*
X3809Y2421D01*
X3760Y2096D02*
Y2470D01*
X3681Y2549D02*
X3760Y2470D01*
X4891Y866D02*
X5581D01*
X4891Y1181D02*
X5581D01*
X11003Y2601D02*
X11123D01*
X11003Y2281D02*
X11123D01*
X12223D02*
X12343D01*
X12223Y2601D02*
X12343D01*
X12205Y1791D02*
X12323D01*
X12205Y1673D02*
X12323D01*
X12205D02*
X12264Y1791D01*
X12323Y1673D01*
X12264D02*
Y1791D01*
Y1417D02*
X12933D01*
X12264Y532D02*
Y1673D01*
X12933Y531D02*
Y1673D01*
X12264Y1378D02*
X12933D01*
X12264Y1457D02*
X12933D01*
X11949Y4094D02*
Y4724D01*
X11634Y4409D02*
X12264D01*
X11949Y7520D02*
Y8150D01*
X11634Y7835D02*
X12264D01*
X2608Y866D02*
X3298D01*
X2608Y1181D02*
X3298D01*
M02*
