G04*
G04 #@! TF.GenerationSoftware,Altium Limited,Altium Designer,18.1.7 (191)*
G04*
G04 Layer_Color=8388736*
%FSLAX24Y24*%
%MOIN*%
G70*
G01*
G75*
%ADD15R,0.1655X0.1891*%
G04:AMPARAMS|DCode=16|XSize=78.9mil|YSize=53.3mil|CornerRadius=9.7mil|HoleSize=0mil|Usage=FLASHONLY|Rotation=0.000|XOffset=0mil|YOffset=0mil|HoleType=Round|Shape=RoundedRectangle|*
%AMROUNDEDRECTD16*
21,1,0.0789,0.0340,0,0,0.0*
21,1,0.0595,0.0533,0,0,0.0*
1,1,0.0193,0.0298,-0.0170*
1,1,0.0193,-0.0298,-0.0170*
1,1,0.0193,-0.0298,0.0170*
1,1,0.0193,0.0298,0.0170*
%
%ADD16ROUNDEDRECTD16*%
G04:AMPARAMS|DCode=17|XSize=39.5mil|YSize=47.4mil|CornerRadius=7.9mil|HoleSize=0mil|Usage=FLASHONLY|Rotation=180.000|XOffset=0mil|YOffset=0mil|HoleType=Round|Shape=RoundedRectangle|*
%AMROUNDEDRECTD17*
21,1,0.0395,0.0315,0,0,180.0*
21,1,0.0236,0.0474,0,0,180.0*
1,1,0.0159,-0.0118,0.0157*
1,1,0.0159,0.0118,0.0157*
1,1,0.0159,0.0118,-0.0157*
1,1,0.0159,-0.0118,-0.0157*
%
%ADD17ROUNDEDRECTD17*%
G04:AMPARAMS|DCode=18|XSize=47.4mil|YSize=43.4mil|CornerRadius=8.4mil|HoleSize=0mil|Usage=FLASHONLY|Rotation=270.000|XOffset=0mil|YOffset=0mil|HoleType=Round|Shape=RoundedRectangle|*
%AMROUNDEDRECTD18*
21,1,0.0474,0.0266,0,0,270.0*
21,1,0.0305,0.0434,0,0,270.0*
1,1,0.0169,-0.0133,-0.0153*
1,1,0.0169,-0.0133,0.0153*
1,1,0.0169,0.0133,0.0153*
1,1,0.0169,0.0133,-0.0153*
%
%ADD18ROUNDEDRECTD18*%
%ADD19R,0.1900X0.1860*%
%ADD20R,0.0730X0.0320*%
G04:AMPARAMS|DCode=21|XSize=39.5mil|YSize=39.5mil|CornerRadius=7.9mil|HoleSize=0mil|Usage=FLASHONLY|Rotation=0.000|XOffset=0mil|YOffset=0mil|HoleType=Round|Shape=RoundedRectangle|*
%AMROUNDEDRECTD21*
21,1,0.0395,0.0236,0,0,0.0*
21,1,0.0236,0.0395,0,0,0.0*
1,1,0.0159,0.0118,-0.0118*
1,1,0.0159,-0.0118,-0.0118*
1,1,0.0159,-0.0118,0.0118*
1,1,0.0159,0.0118,0.0118*
%
%ADD21ROUNDEDRECTD21*%
G04:AMPARAMS|DCode=22|XSize=47.4mil|YSize=34mil|CornerRadius=10.5mil|HoleSize=0mil|Usage=FLASHONLY|Rotation=90.000|XOffset=0mil|YOffset=0mil|HoleType=Round|Shape=RoundedRectangle|*
%AMROUNDEDRECTD22*
21,1,0.0474,0.0130,0,0,90.0*
21,1,0.0264,0.0340,0,0,90.0*
1,1,0.0210,0.0065,0.0132*
1,1,0.0210,0.0065,-0.0132*
1,1,0.0210,-0.0065,-0.0132*
1,1,0.0210,-0.0065,0.0132*
%
%ADD22ROUNDEDRECTD22*%
%ADD23R,0.0340X0.0474*%
G04:AMPARAMS|DCode=24|XSize=47.4mil|YSize=43.4mil|CornerRadius=8.4mil|HoleSize=0mil|Usage=FLASHONLY|Rotation=180.000|XOffset=0mil|YOffset=0mil|HoleType=Round|Shape=RoundedRectangle|*
%AMROUNDEDRECTD24*
21,1,0.0474,0.0266,0,0,180.0*
21,1,0.0305,0.0434,0,0,180.0*
1,1,0.0169,-0.0153,0.0133*
1,1,0.0169,0.0153,0.0133*
1,1,0.0169,0.0153,-0.0133*
1,1,0.0169,-0.0153,-0.0133*
%
%ADD24ROUNDEDRECTD24*%
%ADD25O,0.0690X0.0316*%
%ADD26R,0.0690X0.0316*%
%ADD27R,0.1891X0.1655*%
%ADD28R,0.0631X0.0356*%
%ADD29C,0.0080*%
%ADD30C,0.0592*%
%ADD31C,0.1261*%
G04:AMPARAMS|DCode=32|XSize=86.7mil|YSize=86.7mil|CornerRadius=13.8mil|HoleSize=0mil|Usage=FLASHONLY|Rotation=0.000|XOffset=0mil|YOffset=0mil|HoleType=Round|Shape=RoundedRectangle|*
%AMROUNDEDRECTD32*
21,1,0.0867,0.0591,0,0,0.0*
21,1,0.0591,0.0867,0,0,0.0*
1,1,0.0277,0.0295,-0.0295*
1,1,0.0277,-0.0295,-0.0295*
1,1,0.0277,-0.0295,0.0295*
1,1,0.0277,0.0295,0.0295*
%
%ADD32ROUNDEDRECTD32*%
%ADD33C,0.0867*%
G36*
X9493Y9567D02*
X9499Y9566D01*
X9503Y9565D01*
X9508Y9562D01*
X9513Y9559D01*
X9517Y9556D01*
X9520Y9552D01*
X9523Y9548D01*
X9525Y9543D01*
X9527Y9538D01*
X9528Y9533D01*
X9528Y9528D01*
X9528Y8780D01*
X10433Y8780D01*
X10438Y8780D01*
X10443Y8779D01*
X10448Y8777D01*
X10453Y8775D01*
X10457Y8772D01*
X10461Y8769D01*
X10465Y8765D01*
X10468Y8760D01*
X10470Y8755D01*
X10472Y8751D01*
X10473Y8745D01*
X10473Y8740D01*
X10473Y3622D01*
X10473Y3617D01*
X10472Y3612D01*
X10470Y3607D01*
X10468Y3602D01*
X10465Y3598D01*
X10461Y3594D01*
X10457Y3590D01*
X10453Y3587D01*
X10448Y3585D01*
X10443Y3583D01*
X10438Y3582D01*
X10433Y3582D01*
X9528Y3582D01*
X9528Y2835D01*
X9528Y2829D01*
X9527Y2824D01*
X9525Y2819D01*
X9523Y2815D01*
X9520Y2810D01*
X9517Y2806D01*
X9513Y2803D01*
X9508Y2800D01*
X9504Y2798D01*
X9499Y2796D01*
X9493Y2795D01*
X9488Y2795D01*
X8307Y2795D01*
X8302Y2795D01*
X8297Y2796D01*
X8292Y2798D01*
X8287Y2800D01*
X8283Y2803D01*
X8279Y2806D01*
X8275Y2810D01*
X8272Y2815D01*
X8270Y2819D01*
X8268Y2824D01*
X8267Y2829D01*
X8267Y2835D01*
X8267Y3582D01*
X7362Y3582D01*
X7357Y3582D01*
X7352Y3583D01*
X7347Y3585D01*
X7342Y3587D01*
X7338Y3590D01*
X7334Y3594D01*
X7330Y3598D01*
X7327Y3602D01*
X7325Y3607D01*
X7323Y3612D01*
X7322Y3617D01*
X7322Y3622D01*
X7322Y8740D01*
X7322Y8745D01*
X7323Y8751D01*
X7325Y8755D01*
X7327Y8760D01*
X7330Y8765D01*
X7334Y8769D01*
X7338Y8772D01*
X7342Y8775D01*
X7347Y8777D01*
X7352Y8779D01*
X7357Y8780D01*
X7362Y8780D01*
X8267Y8780D01*
X8267Y9528D01*
X8267Y9533D01*
X8268Y9538D01*
X8270Y9543D01*
X8272Y9548D01*
X8275Y9552D01*
X8279Y9556D01*
X8283Y9559D01*
X8287Y9562D01*
X8292Y9565D01*
X8297Y9566D01*
X8302Y9567D01*
X8307Y9568D01*
X9488Y9568D01*
X9493Y9567D01*
D02*
G37*
D15*
X6575Y1024D02*
D03*
X8543D02*
D03*
D16*
X2953Y433D02*
D03*
Y1614D02*
D03*
X5236Y433D02*
D03*
Y1614D02*
D03*
D17*
X12598Y1831D02*
D03*
Y374D02*
D03*
D18*
X11949Y2441D02*
D03*
X12618D02*
D03*
X11398D02*
D03*
X10728D02*
D03*
X4744Y2283D02*
D03*
X4075D02*
D03*
X2461Y3583D02*
D03*
X3130D02*
D03*
X3091Y8386D02*
D03*
X2421D02*
D03*
D19*
X10367Y1024D02*
D03*
D20*
X11870Y1774D02*
D03*
Y1274D02*
D03*
Y774D02*
D03*
Y274D02*
D03*
D21*
X2815Y2283D02*
D03*
X3484D02*
D03*
D22*
X4488Y1744D02*
D03*
X3740D02*
D03*
X4488Y709D02*
D03*
X4114D02*
D03*
D23*
X3740D02*
D03*
D24*
X5236Y3642D02*
D03*
Y4311D02*
D03*
Y5531D02*
D03*
Y4862D02*
D03*
Y6083D02*
D03*
Y6752D02*
D03*
Y7303D02*
D03*
Y7972D02*
D03*
D25*
X4567Y4217D02*
D03*
Y4717D02*
D03*
Y5217D02*
D03*
Y5717D02*
D03*
Y6217D02*
D03*
Y6717D02*
D03*
Y7217D02*
D03*
Y7717D02*
D03*
X2441Y4217D02*
D03*
Y4717D02*
D03*
Y5217D02*
D03*
Y5717D02*
D03*
Y6217D02*
D03*
Y6717D02*
D03*
Y7217D02*
D03*
D26*
Y7717D02*
D03*
D27*
X7717Y10669D02*
D03*
X10079D02*
D03*
D28*
X11548Y3931D02*
D03*
Y4431D02*
D03*
Y4931D02*
D03*
Y5431D02*
D03*
Y5931D02*
D03*
Y6431D02*
D03*
Y6931D02*
D03*
Y7431D02*
D03*
Y7931D02*
D03*
Y8431D02*
D03*
X6248D02*
D03*
Y7931D02*
D03*
Y7431D02*
D03*
Y6931D02*
D03*
Y6431D02*
D03*
Y5931D02*
D03*
Y5431D02*
D03*
Y4931D02*
D03*
Y4431D02*
D03*
Y3931D02*
D03*
X8898Y6181D02*
D03*
D29*
X5354Y10591D02*
D03*
X827Y3622D02*
D03*
D30*
X3303Y10299D02*
D03*
X3803Y11299D02*
D03*
X4303Y10299D02*
D03*
X4803Y11299D02*
D03*
X1535Y4173D02*
D03*
X535Y4673D02*
D03*
X1535Y5173D02*
D03*
X535Y5673D02*
D03*
X1535Y6173D02*
D03*
X535Y6673D02*
D03*
X1535Y7173D02*
D03*
X535Y7673D02*
D03*
D31*
X1181Y10630D02*
D03*
X14567D02*
D03*
Y1181D02*
D03*
X1181D02*
D03*
D32*
X13327Y7835D02*
D03*
Y4409D02*
D03*
D33*
X14705Y7835D02*
D03*
Y4409D02*
D03*
M02*
