G04 Layer_Physical_Order=1*
G04 Layer_Color=255*
%FSLAX24Y24*%
%MOIN*%
G70*
G01*
G75*
G04:AMPARAMS|DCode=10|XSize=39.4mil|YSize=35.4mil|CornerRadius=4.4mil|HoleSize=0mil|Usage=FLASHONLY|Rotation=180.000|XOffset=0mil|YOffset=0mil|HoleType=Round|Shape=RoundedRectangle|*
%AMROUNDEDRECTD10*
21,1,0.0394,0.0266,0,0,180.0*
21,1,0.0305,0.0354,0,0,180.0*
1,1,0.0089,-0.0153,0.0133*
1,1,0.0089,0.0153,0.0133*
1,1,0.0089,0.0153,-0.0133*
1,1,0.0089,-0.0153,-0.0133*
%
%ADD10ROUNDEDRECTD10*%
%ADD11R,0.0551X0.0276*%
%ADD12R,0.1811X0.1575*%
G04:AMPARAMS|DCode=13|XSize=39.4mil|YSize=35.4mil|CornerRadius=4.4mil|HoleSize=0mil|Usage=FLASHONLY|Rotation=270.000|XOffset=0mil|YOffset=0mil|HoleType=Round|Shape=RoundedRectangle|*
%AMROUNDEDRECTD13*
21,1,0.0394,0.0266,0,0,270.0*
21,1,0.0305,0.0354,0,0,270.0*
1,1,0.0089,-0.0133,-0.0153*
1,1,0.0089,-0.0133,0.0153*
1,1,0.0089,0.0133,0.0153*
1,1,0.0089,0.0133,-0.0153*
%
%ADD13ROUNDEDRECTD13*%
%ADD14R,0.0610X0.0236*%
%ADD15O,0.0610X0.0236*%
%ADD16R,0.0260X0.0394*%
G04:AMPARAMS|DCode=17|XSize=39.4mil|YSize=26mil|CornerRadius=6.5mil|HoleSize=0mil|Usage=FLASHONLY|Rotation=90.000|XOffset=0mil|YOffset=0mil|HoleType=Round|Shape=RoundedRectangle|*
%AMROUNDEDRECTD17*
21,1,0.0394,0.0130,0,0,90.0*
21,1,0.0264,0.0260,0,0,90.0*
1,1,0.0130,0.0065,0.0132*
1,1,0.0130,0.0065,-0.0132*
1,1,0.0130,-0.0065,-0.0132*
1,1,0.0130,-0.0065,0.0132*
%
%ADD17ROUNDEDRECTD17*%
G04:AMPARAMS|DCode=18|XSize=31.5mil|YSize=31.5mil|CornerRadius=3.9mil|HoleSize=0mil|Usage=FLASHONLY|Rotation=0.000|XOffset=0mil|YOffset=0mil|HoleType=Round|Shape=RoundedRectangle|*
%AMROUNDEDRECTD18*
21,1,0.0315,0.0236,0,0,0.0*
21,1,0.0236,0.0315,0,0,0.0*
1,1,0.0079,0.0118,-0.0118*
1,1,0.0079,-0.0118,-0.0118*
1,1,0.0079,-0.0118,0.0118*
1,1,0.0079,0.0118,0.0118*
%
%ADD18ROUNDEDRECTD18*%
G04:AMPARAMS|DCode=19|XSize=70.9mil|YSize=45.3mil|CornerRadius=5.7mil|HoleSize=0mil|Usage=FLASHONLY|Rotation=180.000|XOffset=0mil|YOffset=0mil|HoleType=Round|Shape=RoundedRectangle|*
%AMROUNDEDRECTD19*
21,1,0.0709,0.0340,0,0,180.0*
21,1,0.0595,0.0453,0,0,180.0*
1,1,0.0113,-0.0298,0.0170*
1,1,0.0113,0.0298,0.0170*
1,1,0.0113,0.0298,-0.0170*
1,1,0.0113,-0.0298,-0.0170*
%
%ADD19ROUNDEDRECTD19*%
%ADD20R,0.1575X0.1811*%
%ADD21R,0.0650X0.0240*%
%ADD22R,0.1820X0.1780*%
G04:AMPARAMS|DCode=23|XSize=31.5mil|YSize=39.4mil|CornerRadius=3.9mil|HoleSize=0mil|Usage=FLASHONLY|Rotation=180.000|XOffset=0mil|YOffset=0mil|HoleType=Round|Shape=RoundedRectangle|*
%AMROUNDEDRECTD23*
21,1,0.0315,0.0315,0,0,180.0*
21,1,0.0236,0.0394,0,0,180.0*
1,1,0.0079,-0.0118,0.0157*
1,1,0.0079,0.0118,0.0157*
1,1,0.0079,0.0118,-0.0157*
1,1,0.0079,-0.0118,-0.0157*
%
%ADD23ROUNDEDRECTD23*%
%ADD24C,0.0236*%
%ADD25C,0.0157*%
%ADD26C,0.0394*%
%ADD27C,0.0315*%
%ADD28C,0.0512*%
%ADD29C,0.0787*%
G04:AMPARAMS|DCode=30|XSize=78.7mil|YSize=78.7mil|CornerRadius=9.8mil|HoleSize=0mil|Usage=FLASHONLY|Rotation=0.000|XOffset=0mil|YOffset=0mil|HoleType=Round|Shape=RoundedRectangle|*
%AMROUNDEDRECTD30*
21,1,0.0787,0.0591,0,0,0.0*
21,1,0.0591,0.0787,0,0,0.0*
1,1,0.0197,0.0295,-0.0295*
1,1,0.0197,-0.0295,-0.0295*
1,1,0.0197,-0.0295,0.0295*
1,1,0.0197,0.0295,0.0295*
%
%ADD30ROUNDEDRECTD30*%
%ADD31C,0.1181*%
%ADD32C,0.0315*%
%ADD33C,0.0394*%
G36*
X13386Y10630D02*
X13388Y10553D01*
X13409Y10400D01*
X13449Y10250D01*
X13508Y10108D01*
X13585Y9974D01*
X13679Y9851D01*
X13788Y9742D01*
X13911Y9648D01*
X14045Y9571D01*
X14187Y9512D01*
X14337Y9472D01*
X14490Y9451D01*
X14567Y9449D01*
X15648Y9449D01*
Y2362D01*
X14567Y2362D01*
X14567Y2362D01*
X14490Y2360D01*
X14336Y2339D01*
X14187Y2299D01*
X14045Y2240D01*
X13911Y2163D01*
X13788Y2069D01*
X13679Y1960D01*
X13585Y1837D01*
X13508Y1703D01*
X13449Y1561D01*
X13409Y1412D01*
X13388Y1258D01*
X13386Y1181D01*
Y100D01*
X11471D01*
X11357Y134D01*
Y1566D01*
X11466Y1618D01*
X11475Y1617D01*
X11488Y1597D01*
X11514Y1579D01*
X11545Y1573D01*
X11868D01*
X11870Y1573D01*
X12418D01*
X12434Y1562D01*
X12480Y1553D01*
X12717D01*
X12763Y1562D01*
X12802Y1588D01*
X12828Y1627D01*
X12837Y1673D01*
Y1988D01*
X12828Y2034D01*
X12814Y2055D01*
X12808Y2099D01*
X12832Y2195D01*
X12840Y2200D01*
X12867Y2240D01*
X12876Y2288D01*
Y2594D01*
X12867Y2642D01*
X12840Y2682D01*
X12799Y2709D01*
X12751Y2719D01*
X12624D01*
X12366Y2977D01*
X12301Y3020D01*
X12224Y3035D01*
X11862D01*
X11855Y3052D01*
X11811Y3110D01*
X11753Y3154D01*
X11686Y3182D01*
X11614Y3191D01*
X11542Y3182D01*
X11475Y3154D01*
X11418Y3110D01*
X11373Y3052D01*
X11372Y3049D01*
X11254Y3072D01*
Y4137D01*
X11330Y4213D01*
X11823D01*
X11854Y4219D01*
X11880Y4237D01*
X11897Y4263D01*
X11904Y4293D01*
Y4569D01*
X11897Y4600D01*
X11889Y4612D01*
X11880Y4640D01*
Y4722D01*
X11889Y4751D01*
X11897Y4763D01*
X11904Y4793D01*
Y4876D01*
X12013Y4921D01*
X12859Y4075D01*
X12865Y4045D01*
X12904Y3986D01*
X12962Y3947D01*
X13031Y3934D01*
X13622D01*
X13632Y3935D01*
X13740D01*
X13771Y3942D01*
X13797Y3959D01*
X13814Y3985D01*
X13820Y4016D01*
X13820Y8224D01*
X13820Y8228D01*
X13820Y8228D01*
X13814Y8259D01*
X13797Y8285D01*
X13771Y8303D01*
X13740Y8309D01*
X13740Y8309D01*
X13736Y8309D01*
X13632D01*
X13622Y8311D01*
X13031D01*
X13022Y8309D01*
X12953D01*
X12953Y8309D01*
X12922Y8303D01*
X12896Y8285D01*
X12896Y8285D01*
X12022Y7411D01*
X11904Y7460D01*
Y7569D01*
X11897Y7600D01*
X11880Y7626D01*
X11854Y7643D01*
X11823Y7649D01*
X11272D01*
X11241Y7643D01*
X11215Y7626D01*
X11198Y7600D01*
X11192Y7569D01*
Y7341D01*
X11180Y7319D01*
X11112Y7258D01*
X11081Y7244D01*
X11063Y7246D01*
X10991Y7237D01*
X10924Y7209D01*
X10866Y7165D01*
X10822Y7107D01*
X10795Y7040D01*
X10785Y6969D01*
X10795Y6897D01*
X10822Y6830D01*
X10866Y6772D01*
X10924Y6728D01*
X10913Y6647D01*
X10903Y6575D01*
X10913Y6503D01*
X10940Y6436D01*
X10985Y6378D01*
X11042Y6334D01*
X11109Y6306D01*
X11181Y6297D01*
X11208Y6184D01*
X11200Y6117D01*
X11199Y6116D01*
X11046Y5962D01*
X11028Y5936D01*
X11022Y5906D01*
X11022Y5439D01*
X11021Y5433D01*
X11022Y5427D01*
Y5354D01*
X11022Y5354D01*
X11028Y5324D01*
X11046Y5298D01*
X11090Y5254D01*
X11103Y5237D01*
X11120Y5223D01*
X11137Y5206D01*
X11191Y5150D01*
X11198Y5100D01*
X11197Y5094D01*
X11192Y5069D01*
Y5031D01*
X11001Y4840D01*
X10966Y4788D01*
X10954Y4726D01*
X10954Y4726D01*
Y4625D01*
X10744Y4415D01*
X10709Y4363D01*
X10697Y4301D01*
X10697Y4301D01*
Y3325D01*
X10603Y3231D01*
X10375D01*
X10313Y3219D01*
X10261Y3184D01*
X10261Y3184D01*
X9875Y2798D01*
X5973D01*
X5971Y2809D01*
X5918Y2887D01*
X5840Y2939D01*
X5748Y2957D01*
X5656Y2939D01*
X5623Y2917D01*
X5553Y2892D01*
X5453Y2913D01*
X5430Y2928D01*
X5338Y2947D01*
X5246Y2928D01*
X5168Y2876D01*
X5144Y2841D01*
X5110Y2798D01*
X4994Y2792D01*
X4961Y2798D01*
X4961Y2798D01*
X4308D01*
X4245Y2916D01*
X4250Y2925D01*
X4266Y3002D01*
Y4516D01*
X4671D01*
X4958Y4228D01*
Y4178D01*
X4966Y4139D01*
X4961Y4134D01*
Y3819D01*
X5039Y3740D01*
X5433D01*
X5512Y3819D01*
Y4134D01*
X5528Y4243D01*
X5632Y4283D01*
X5689Y4246D01*
X5713Y4241D01*
X5735Y4226D01*
X5827Y4208D01*
X5841Y4211D01*
X5859Y4191D01*
X5899Y4102D01*
X5898Y4100D01*
X5892Y4069D01*
Y3793D01*
X5898Y3763D01*
X5915Y3737D01*
X5941Y3719D01*
X5972Y3713D01*
X6523D01*
X6554Y3719D01*
X6580Y3737D01*
X6597Y3763D01*
X6604Y3793D01*
Y4069D01*
X6597Y4100D01*
X6589Y4112D01*
X6580Y4140D01*
Y4222D01*
X6589Y4251D01*
X6597Y4263D01*
X6604Y4293D01*
Y4569D01*
X6597Y4600D01*
X6589Y4612D01*
X6580Y4640D01*
Y4722D01*
X6589Y4751D01*
X6597Y4763D01*
X6604Y4793D01*
Y5069D01*
X6597Y5100D01*
X6589Y5112D01*
X6580Y5140D01*
Y5222D01*
X6589Y5251D01*
X6597Y5263D01*
X6604Y5293D01*
Y5472D01*
X6613Y5571D01*
X6719Y5594D01*
X6724Y5595D01*
X6750Y5613D01*
X6750Y5613D01*
X6794Y5656D01*
X6811Y5670D01*
X6824Y5687D01*
X6867Y5730D01*
X6885Y5756D01*
X6891Y5787D01*
Y5858D01*
X6892Y5866D01*
X6891Y5875D01*
Y5945D01*
X6891Y5945D01*
X6885Y5976D01*
X6867Y6002D01*
X6867Y6002D01*
X6824Y6046D01*
X6811Y6063D01*
X6794Y6076D01*
X6750Y6120D01*
X6750Y6120D01*
X6724Y6137D01*
X6695Y6194D01*
X6691Y6210D01*
X6690Y6261D01*
X6794Y6365D01*
X6811Y6378D01*
X6824Y6395D01*
X6986Y6557D01*
X7003Y6583D01*
X7009Y6614D01*
Y6962D01*
X7010Y6969D01*
X7009Y6975D01*
Y7087D01*
X7009Y7087D01*
X7003Y7117D01*
X6986Y7143D01*
X6986Y7143D01*
X6907Y7222D01*
X6881Y7240D01*
X6850Y7246D01*
X6739D01*
X6732Y7246D01*
X6726Y7246D01*
X6714D01*
X6695Y7254D01*
X6604Y7364D01*
Y7569D01*
X6597Y7600D01*
X6580Y7626D01*
X6554Y7643D01*
X6523Y7649D01*
X5972D01*
X5941Y7643D01*
X5915Y7626D01*
X5898Y7600D01*
X5892Y7569D01*
Y7559D01*
X5527Y7195D01*
X5484Y7130D01*
X5469Y7054D01*
X5447Y7021D01*
X5428Y6929D01*
X5447Y6837D01*
X5499Y6759D01*
X5577Y6707D01*
X5669Y6688D01*
X5761Y6707D01*
X5867Y6648D01*
X5898Y6600D01*
X5892Y6569D01*
Y6293D01*
X5898Y6263D01*
X5906Y6251D01*
X5915Y6222D01*
Y6140D01*
X5906Y6112D01*
X5898Y6100D01*
X5892Y6069D01*
Y5962D01*
X5774Y5913D01*
X5620Y6067D01*
X5603Y6078D01*
X5514Y6167D01*
Y6216D01*
X5506Y6255D01*
X5512Y6260D01*
Y6575D01*
X5433Y6654D01*
X5136D01*
X5028Y6717D01*
X5010Y6809D01*
X4958Y6887D01*
X4880Y6939D01*
X4787Y6957D01*
X4695Y6939D01*
X4663Y6917D01*
X4380D01*
X4354Y6912D01*
X4250Y6980D01*
X4236Y6999D01*
Y7417D01*
X4335Y7516D01*
X4961D01*
Y7480D01*
X5039Y7402D01*
X5433D01*
X5512Y7480D01*
Y7795D01*
X5506Y7801D01*
X5514Y7840D01*
Y7965D01*
X5516Y7972D01*
X5514Y7980D01*
Y8105D01*
X5505Y8153D01*
X5477Y8194D01*
X5437Y8221D01*
X5389Y8231D01*
X5084D01*
X5036Y8221D01*
X4995Y8194D01*
X4968Y8153D01*
X4958Y8105D01*
Y7917D01*
X4528D01*
X4483Y8026D01*
X5709Y9252D01*
X5709Y10465D01*
X5716Y10483D01*
X5718Y10493D01*
X5722Y10503D01*
X5732Y10580D01*
X5731Y10591D01*
X5732Y10601D01*
X5722Y10678D01*
X5718Y10688D01*
X5716Y10698D01*
X5709Y10717D01*
X5709Y11711D01*
X13386D01*
Y10630D01*
D02*
G37*
G36*
X13740Y4016D02*
X13032Y4016D01*
X11811Y5236D01*
X11220Y5236D01*
X11102Y5354D01*
X11102Y5906D01*
X11339Y6142D01*
X12008D01*
X12008Y7283D01*
X12953Y8228D01*
X13740Y8228D01*
X13740Y4016D01*
D02*
G37*
G36*
X11260Y118D02*
X7756D01*
Y1929D01*
X11260D01*
Y118D01*
D02*
G37*
G36*
X4965Y2406D02*
X4965Y2406D01*
X5319Y2052D01*
X5372Y2017D01*
X5433Y2005D01*
X5433Y2005D01*
X5611D01*
X5613Y2004D01*
X5707Y1929D01*
Y771D01*
X5589Y729D01*
X5587Y730D01*
X5534Y741D01*
X4938D01*
X4886Y730D01*
X4847Y705D01*
X4809Y706D01*
X4723Y737D01*
X4711Y801D01*
X4700Y817D01*
Y841D01*
X4689Y897D01*
X4657Y944D01*
X4609Y976D01*
X4553Y987D01*
X4423D01*
X4367Y976D01*
X4320Y944D01*
X4288Y897D01*
X4277Y841D01*
Y817D01*
X4266Y801D01*
X4247Y709D01*
Y516D01*
X4024D01*
X3989Y552D01*
Y701D01*
X3971Y793D01*
X3950Y823D01*
Y906D01*
X3944Y936D01*
X3927Y962D01*
X3901Y980D01*
X3870Y986D01*
X3610D01*
X3580Y980D01*
X3553Y962D01*
X3536Y936D01*
X3530Y906D01*
Y819D01*
X3518Y801D01*
X3499Y709D01*
X3507Y669D01*
Y452D01*
X3526Y360D01*
X3578Y282D01*
X3641Y218D01*
X3592Y100D01*
X2520D01*
Y1230D01*
X2543Y1254D01*
X2638Y1310D01*
X2655Y1306D01*
X3250D01*
X3303Y1317D01*
X3348Y1347D01*
X3378Y1392D01*
X3388Y1444D01*
Y1466D01*
X3673D01*
X3675Y1466D01*
X3805D01*
X3861Y1477D01*
X3909Y1509D01*
X3933Y1544D01*
X3937Y1548D01*
X3981Y1605D01*
X4009Y1672D01*
X4018Y1744D01*
X4009Y1816D01*
X3981Y1883D01*
X3978Y1887D01*
X4036Y2005D01*
X4195D01*
X4227Y1980D01*
X4273Y1920D01*
X4279Y1890D01*
X4277Y1876D01*
Y1612D01*
X4288Y1556D01*
X4320Y1509D01*
X4367Y1477D01*
X4423Y1466D01*
X4553D01*
X4609Y1477D01*
X4657Y1509D01*
X4689Y1556D01*
X4700Y1612D01*
Y1876D01*
X4689Y1932D01*
X4657Y1980D01*
X4646Y2087D01*
Y2477D01*
X4894D01*
X4965Y2406D01*
D02*
G37*
G36*
X6693Y6063D02*
X6811Y5945D01*
X6811Y5787D01*
X6693Y5670D01*
X6102D01*
X5984Y5787D01*
Y6063D01*
X6693Y6063D01*
D02*
G37*
G36*
X11066Y7165D02*
X11071Y7164D01*
X11077Y7165D01*
X11083Y7164D01*
X11089Y7165D01*
X11733Y7165D01*
X11811Y7087D01*
X11811Y6299D01*
X11263D01*
X11259Y6316D01*
X11259Y6317D01*
X11259Y6318D01*
X11252Y6331D01*
X11246Y6344D01*
X11245Y6345D01*
X11245Y6346D01*
X11234Y6355D01*
X11223Y6365D01*
X11222Y6366D01*
X11221Y6366D01*
X11207Y6371D01*
X11194Y6376D01*
X11193Y6376D01*
X11192Y6376D01*
X11130Y6385D01*
X11083Y6404D01*
X11055Y6426D01*
X11032Y6448D01*
X11011Y6476D01*
X10991Y6524D01*
X10984Y6575D01*
X10992Y6636D01*
X11004Y6717D01*
X11003Y6727D01*
X11004Y6738D01*
X11002Y6743D01*
X11002Y6748D01*
X10997Y6758D01*
X10994Y6768D01*
X10990Y6772D01*
X10988Y6776D01*
X10980Y6783D01*
X10973Y6791D01*
X10924Y6829D01*
X10892Y6870D01*
X10873Y6918D01*
X10866Y6965D01*
Y6972D01*
X10873Y7019D01*
X10892Y7067D01*
X10914Y7095D01*
X10937Y7118D01*
X10964Y7139D01*
X11012Y7159D01*
X11060Y7165D01*
X11066D01*
D02*
G37*
G36*
X6929Y7087D02*
Y6614D01*
X6614Y6299D01*
X5984Y6299D01*
X5984Y7084D01*
X6066Y7165D01*
X6850Y7165D01*
X6929Y7087D01*
D02*
G37*
%LPC*%
G36*
X10984Y11537D02*
X9173D01*
X9143Y11531D01*
X9116Y11513D01*
X9099Y11487D01*
X9093Y11457D01*
Y9882D01*
X9099Y9851D01*
X9116Y9825D01*
X9143Y9808D01*
X9173Y9802D01*
X10984D01*
X11015Y9808D01*
X11041Y9825D01*
X11058Y9851D01*
X11065Y9882D01*
Y11457D01*
X11058Y11487D01*
X11041Y11513D01*
X11015Y11531D01*
X10984Y11537D01*
D02*
G37*
G36*
X8622D02*
X6811D01*
X6780Y11531D01*
X6754Y11513D01*
X6737Y11487D01*
X6731Y11457D01*
Y9882D01*
X6737Y9851D01*
X6754Y9825D01*
X6780Y9808D01*
X6811Y9802D01*
X8622D01*
X8653Y9808D01*
X8679Y9825D01*
X8696Y9851D01*
X8702Y9882D01*
Y11457D01*
X8696Y11487D01*
X8679Y11513D01*
X8653Y11531D01*
X8622Y11537D01*
D02*
G37*
%LPD*%
D10*
X5236Y7972D02*
D03*
Y7303D02*
D03*
Y6752D02*
D03*
Y6083D02*
D03*
Y4862D02*
D03*
Y5531D02*
D03*
Y4311D02*
D03*
Y3642D02*
D03*
D11*
X8898Y6181D02*
D03*
X6248Y3931D02*
D03*
Y4431D02*
D03*
Y4931D02*
D03*
Y5431D02*
D03*
Y5931D02*
D03*
Y6431D02*
D03*
Y6931D02*
D03*
Y7431D02*
D03*
Y7931D02*
D03*
Y8431D02*
D03*
X11548D02*
D03*
Y7931D02*
D03*
Y7431D02*
D03*
Y6931D02*
D03*
Y6431D02*
D03*
Y5931D02*
D03*
Y5431D02*
D03*
Y4931D02*
D03*
Y4431D02*
D03*
Y3931D02*
D03*
D12*
X10079Y10669D02*
D03*
X7717D02*
D03*
D13*
X2421Y8386D02*
D03*
X3091D02*
D03*
X3130Y3583D02*
D03*
X2461D02*
D03*
X4075Y2283D02*
D03*
X4744D02*
D03*
X10728Y2441D02*
D03*
X11398D02*
D03*
X12618D02*
D03*
X11949D02*
D03*
D14*
X2441Y7717D02*
D03*
D15*
Y7217D02*
D03*
Y6717D02*
D03*
Y6217D02*
D03*
Y5717D02*
D03*
Y5217D02*
D03*
Y4717D02*
D03*
Y4217D02*
D03*
X4567Y7717D02*
D03*
Y7217D02*
D03*
Y6717D02*
D03*
Y6217D02*
D03*
Y5717D02*
D03*
Y5217D02*
D03*
Y4717D02*
D03*
Y4217D02*
D03*
D16*
X3740Y709D02*
D03*
D17*
X4114D02*
D03*
X4488D02*
D03*
X3740Y1744D02*
D03*
X4488D02*
D03*
D18*
X3484Y2283D02*
D03*
X2815D02*
D03*
D19*
X5236Y1614D02*
D03*
Y433D02*
D03*
X2953Y1614D02*
D03*
Y433D02*
D03*
D20*
X8543Y1024D02*
D03*
X6575D02*
D03*
D21*
X11870Y274D02*
D03*
Y774D02*
D03*
Y1274D02*
D03*
Y1774D02*
D03*
D22*
X10367Y1024D02*
D03*
D23*
X12598Y374D02*
D03*
Y1831D02*
D03*
D24*
X2441Y7717D02*
Y8366D01*
X5059Y7717D02*
X5315Y7972D01*
X5236Y4311D02*
X5315D01*
X5159D02*
X5236D01*
X4035Y7500D02*
X4252Y7717D01*
X4035Y4754D02*
Y7500D01*
Y4754D02*
X4065Y4724D01*
X5766Y4431D02*
X6248D01*
X5748Y4449D02*
X5766Y4431D01*
X1535Y5173D02*
X1579Y5217D01*
X2441D01*
X4567Y4717D02*
X4754D01*
X5159Y4311D01*
X2815Y2283D02*
X3169Y2638D01*
X3701D01*
X4065Y3002D01*
Y4724D01*
X4073Y4717D01*
X4567D01*
X4252Y7717D02*
X4567D01*
X12224Y2835D02*
X12618Y2441D01*
X11693Y2835D02*
X12224D01*
X11614Y2913D02*
X11693Y2835D01*
X6057Y7441D02*
X6234D01*
X5669Y7053D02*
X6057Y7441D01*
X6236Y7439D02*
X6238Y7441D01*
X5669Y6929D02*
Y7053D01*
X5709Y5689D02*
Y5695D01*
X5478Y5925D02*
X5709Y5695D01*
X5472Y5925D02*
X5478D01*
X5315Y6083D02*
X5472Y5925D01*
X6234Y7441D02*
X6236Y7439D01*
X11870Y1774D02*
X12598D01*
X11949Y1852D02*
Y2441D01*
X11870Y1774D02*
X11949Y1852D01*
X6238Y7441D02*
X6248Y7431D01*
X4567Y7717D02*
X5059D01*
X5384Y4931D02*
X6248D01*
X5315Y4862D02*
X5384Y4931D01*
X5967Y5431D02*
X6248D01*
X5709Y5689D02*
X5967Y5431D01*
X2953Y3760D02*
X3130Y3583D01*
X2953Y3760D02*
Y4370D01*
X2606Y4717D02*
X2953Y4370D01*
X2441Y4717D02*
X2606D01*
X2441Y4217D02*
X2461Y4197D01*
Y3583D02*
Y4197D01*
X1579Y4217D02*
X2441D01*
X1535Y4173D02*
X1579Y4217D01*
X2402Y7177D02*
X2441Y7217D01*
X4303Y10091D02*
Y10299D01*
X2992Y8780D02*
X4303Y10091D01*
X2858Y8780D02*
X2992D01*
X3803Y10159D02*
Y11299D01*
X3491Y9846D02*
X3803Y10159D01*
X3255Y9846D02*
X3491D01*
X1535Y8126D02*
X3255Y9846D01*
X3263Y10299D02*
X3303D01*
X637Y7673D02*
X3263Y10299D01*
X3091Y8386D02*
X4803Y10098D01*
Y11299D01*
X2717Y8638D02*
X2858Y8780D01*
X2717Y8627D02*
Y8638D01*
X2475Y8386D02*
X2717Y8627D01*
X2421Y8386D02*
X2475D01*
X535Y7673D02*
X637D01*
X1535Y7173D02*
Y8126D01*
X2953Y8248D02*
X3091Y8386D01*
X2953Y7480D02*
Y8248D01*
X2689Y7217D02*
X2953Y7480D01*
X2441Y7217D02*
X2689D01*
X2421Y8386D02*
X2441Y8366D01*
X1579Y6217D02*
X2441D01*
X1535Y6173D02*
X1579Y6217D01*
X579Y6717D02*
X2441D01*
X535Y6673D02*
X579Y6717D01*
Y5717D02*
X2441D01*
X535Y5673D02*
X579Y5717D01*
Y4717D02*
X2441D01*
X535Y4673D02*
X579Y4717D01*
D25*
X11093Y2745D02*
X11398Y2441D01*
X11093Y2745D02*
Y4204D01*
X10512Y2795D02*
X11043D01*
X10462Y2745D02*
X10512Y2795D01*
X10462Y2745D02*
X10462D01*
X10118Y2402D02*
X10462Y2745D01*
X10453Y3071D02*
X10669D01*
X10020Y2638D02*
X10453Y3071D01*
X5827Y2638D02*
X10020D01*
X5618Y2402D02*
X10118D01*
X10453Y2165D02*
X10728Y2441D01*
X5433Y2165D02*
X10453D01*
X5748Y2717D02*
X5827Y2638D01*
X11319Y4931D02*
X11548D01*
X11115Y4726D02*
X11319Y4931D01*
X11115Y4559D02*
Y4726D01*
X10857Y4301D02*
X11115Y4559D01*
X10857Y3259D02*
Y4301D01*
X10669Y3071D02*
X10857Y3259D01*
X5338Y2681D02*
X5618Y2402D01*
X5338Y2681D02*
Y2706D01*
X5079Y2520D02*
X5433Y2165D01*
X5079Y2520D02*
Y2520D01*
X4961Y2638D02*
X5079Y2520D01*
X3701Y2638D02*
X4961D01*
X4390Y5217D02*
X4567D01*
Y6217D02*
X4760D01*
X3484Y2283D02*
X4075D01*
X11321Y4431D02*
X11548D01*
X11093Y4204D02*
X11321Y4431D01*
X6248Y7431D02*
Y7441D01*
X5315Y4862D02*
Y4931D01*
D26*
X5236Y433D02*
X6575D01*
X2815Y1752D02*
X2953Y1614D01*
X2815Y1752D02*
Y2283D01*
X6575Y433D02*
Y1024D01*
X2953Y1614D02*
X3083Y1744D01*
X3740D01*
D27*
X5079Y276D02*
X5236Y433D01*
X3748Y452D02*
X3924Y276D01*
X3748Y452D02*
Y701D01*
X3740Y709D02*
X3748Y701D01*
X4488Y354D02*
Y709D01*
Y354D02*
X4567Y276D01*
X3924D02*
X4567D01*
X5079D01*
D28*
X535Y7673D02*
D03*
X1535Y7173D02*
D03*
X535Y6673D02*
D03*
X1535Y6173D02*
D03*
X535Y5673D02*
D03*
X1535Y5173D02*
D03*
X535Y4673D02*
D03*
X1535Y4173D02*
D03*
X4803Y11299D02*
D03*
X4303Y10299D02*
D03*
X3803Y11299D02*
D03*
X3303Y10299D02*
D03*
D29*
X14705Y4409D02*
D03*
Y7835D02*
D03*
D30*
X13327Y4409D02*
D03*
Y7835D02*
D03*
D31*
X1181Y1181D02*
D03*
X14567D02*
D03*
Y10630D02*
D03*
X1181D02*
D03*
D32*
X5748Y2717D02*
D03*
X5338Y2706D02*
D03*
X4390Y5217D02*
D03*
X4795Y5717D02*
D03*
X5827Y4449D02*
D03*
X5669Y6929D02*
D03*
X4760Y6217D02*
D03*
X2244Y7717D02*
D03*
X2402Y7177D02*
D03*
X4787Y6717D02*
D03*
D33*
X7717Y10669D02*
D03*
X8346D02*
D03*
Y11181D02*
D03*
Y10157D02*
D03*
X7087Y11181D02*
D03*
Y10157D02*
D03*
X7087Y10669D02*
D03*
X7717Y10157D02*
D03*
Y11181D02*
D03*
X10079Y10669D02*
D03*
X10709Y11181D02*
D03*
X10079D02*
D03*
X9449Y10157D02*
D03*
Y10669D02*
D03*
Y11181D02*
D03*
X10079Y10157D02*
D03*
X10709Y10669D02*
D03*
X13150Y2402D02*
D03*
X13583Y2244D02*
D03*
X13189Y1850D02*
D03*
X6575Y394D02*
D03*
X7087D02*
D03*
X6063Y1024D02*
D03*
X7087D02*
D03*
X6575D02*
D03*
X14173Y5906D02*
D03*
X12205Y8268D02*
D03*
Y9449D02*
D03*
X13386D02*
D03*
X15354Y9055D02*
D03*
Y5906D02*
D03*
X13543Y2795D02*
D03*
X15354Y2756D02*
D03*
X6614Y5866D02*
D03*
X6299Y6969D02*
D03*
X6614Y6575D02*
D03*
X6732Y6969D02*
D03*
X6181Y5866D02*
D03*
X11614Y2913D02*
D03*
X5591Y6496D02*
D03*
X5394Y5413D02*
D03*
X5630Y8701D02*
D03*
X4764Y8110D02*
D03*
X5000Y3150D02*
D03*
X4646Y3740D02*
D03*
X10079Y8150D02*
D03*
X9291D02*
D03*
X8504D02*
D03*
X7717D02*
D03*
X10079Y7362D02*
D03*
X9291D02*
D03*
X8504D02*
D03*
X7717D02*
D03*
X10079Y6575D02*
D03*
X9291D02*
D03*
X8504D02*
D03*
X7717D02*
D03*
X10079Y5787D02*
D03*
X9291D02*
D03*
X8504D02*
D03*
X7717D02*
D03*
X10079Y5000D02*
D03*
X9291D02*
D03*
X8504D02*
D03*
X7717D02*
D03*
Y4213D02*
D03*
X10079D02*
D03*
X9291D02*
D03*
X8504D02*
D03*
X9685Y5394D02*
D03*
Y4606D02*
D03*
Y3819D02*
D03*
X8110D02*
D03*
Y4606D02*
D03*
Y5394D02*
D03*
X9685Y8543D02*
D03*
Y7756D02*
D03*
Y6969D02*
D03*
X8110Y8543D02*
D03*
Y7756D02*
D03*
Y6969D02*
D03*
X9685Y6181D02*
D03*
X8110D02*
D03*
X8898Y8543D02*
D03*
Y7756D02*
D03*
Y6969D02*
D03*
Y3819D02*
D03*
Y4606D02*
D03*
Y5394D02*
D03*
X2717Y394D02*
D03*
X3189D02*
D03*
X5000Y1614D02*
D03*
X5472D02*
D03*
X6063Y394D02*
D03*
X6181Y6575D02*
D03*
X10709Y10157D02*
D03*
X11496Y6969D02*
D03*
X11614Y6575D02*
D03*
X11181D02*
D03*
X11063Y6969D02*
D03*
X6063Y1654D02*
D03*
X6575D02*
D03*
X7087D02*
D03*
X11850Y5827D02*
D03*
X11417D02*
D03*
X11299Y5433D02*
D03*
X11732D02*
D03*
X11614Y1299D02*
D03*
X12126D02*
D03*
X12638D02*
D03*
X13150D02*
D03*
X11614Y827D02*
D03*
X12126D02*
D03*
X12638D02*
D03*
X13150D02*
D03*
X11614Y354D02*
D03*
X12126D02*
D03*
X12638D02*
D03*
X13150D02*
D03*
X8898Y6181D02*
D03*
X6024Y11417D02*
D03*
X11811D02*
D03*
X12992D02*
D03*
M02*
